<svg xmlns="http://www.w3.org/2000/svg" xmlns:xlink="http://www.w3.org/1999/xlink" width="500" zoomAndPan="magnify" viewBox="0 0 375 374.999991" height="500" preserveAspectRatio="xMidYMid meet" version="1.0"><defs><g/><clipPath id="id1"><path d="M 88.511719 76 L 142.324219 76 L 142.324219 250.546875 L 88.511719 250.546875 Z M 88.511719 76 " clip-rule="nonzero"/></clipPath></defs><rect x="-37.5" width="450" fill="rgb(100%, 100%, 100%)" y="-37.499999" height="449.999989" fill-opacity="1"/><rect x="-37.5" width="450" fill="rgb(98.429871%, 93.328857%, 90.19928%)" y="-37.499999" height="449.999989" fill-opacity="1"/><rect x="-37.5" width="450" fill="rgb(100%, 100%, 100%)" y="-37.499999" height="449.999989" fill-opacity="1"/><rect x="-37.5" width="450" fill="rgb(98.429871%, 93.328857%, 90.19928%)" y="-37.499999" height="449.999989" fill-opacity="1"/><g clip-path="url(#id1)"><path fill="rgb(0%, 0%, 0%)" d="M 116.730469 210.207031 C 116.730469 210.679688 117.464844 210.679688 117.464844 210.207031 C 117.464844 206.070312 116.816406 201.976562 115.214844 198.183594 C 112.53125 191.847656 107.679688 186.851562 102.960938 181.9375 C 97.589844 176.378906 92.480469 170.648438 89.230469 163.582031 C 89.015625 163.152344 88.324219 163.367188 88.324219 163.839844 C 88.539062 170.304688 89.882812 176.679688 91.917969 182.800781 C 99.496094 205.679688 115.734375 225.675781 119.199219 249.890625 C 119.285156 250.410156 120.019531 250.324219 120.152344 249.890625 C 121.96875 243.253906 123.226562 236.492188 123.917969 229.640625 C 125.824219 210.980469 124.613281 192.023438 123.527344 173.363281 C 122.835938 161.382812 121.925781 149.449219 121.105469 137.511719 C 120.628906 130.445312 120.410156 123.464844 120.628906 116.398438 C 120.628906 116.054688 120.28125 115.796875 119.933594 115.882812 C 114.476562 117.261719 109.152344 117.820312 103.78125 115.839844 C 98.84375 114.027344 91.875 109.632812 93.734375 103.386719 C 93.5625 103.515625 93.433594 103.644531 93.257812 103.730469 C 97.070312 103.773438 100.449219 106.144531 103.695312 107.910156 C 106.8125 109.589844 109.929688 111.226562 113.050781 112.910156 C 117.8125 115.449219 122.792969 118.292969 128.335938 118.378906 C 132.664062 118.335938 137.125 116.65625 139.421875 112.777344 C 142.191406 108.210938 142.324219 101.835938 142.324219 96.664062 C 142.324219 90.628906 141.371094 84.683594 139.636719 78.953125 C 139.464844 78.4375 138.683594 78.523438 138.683594 79.082031 C 138.554688 85.847656 132.058594 90.113281 128.292969 94.984375 C 124.089844 100.457031 121.882812 107.089844 120.019531 113.640625 C 120.195312 113.554688 120.367188 113.425781 120.539062 113.339844 C 108.546875 110.195312 99.496094 99.078125 98.933594 86.753906 C 98.714844 86.882812 98.5 87.011719 98.28125 87.140625 C 107.417969 90.976562 117.378906 95.242188 123.140625 103.6875 C 123.355469 103.988281 123.832031 104.03125 124.003906 103.6875 C 129.070312 95.027344 128.117188 82.269531 119.542969 76.152344 C 119.285156 75.9375 118.894531 76.152344 118.808594 76.453125 C 117.207031 81.195312 111.058594 86.234375 113.914062 91.707031 C 114.476562 92.828125 114.824219 93.085938 116.082031 92.914062 C 117.292969 92.742188 118.460938 92.355469 119.589844 91.792969 C 121.96875 90.585938 123.875 88.605469 124.957031 86.191406 C 125.042969 85.976562 125.042969 85.632812 124.785156 85.503906 C 121.96875 84.253906 118.765625 87.785156 120.539062 90.414062 C 120.886719 90.933594 121.753906 90.457031 121.363281 89.941406 C 120.195312 88.21875 122.273438 85.503906 124.265625 86.363281 C 124.222656 86.148438 124.136719 85.890625 124.089844 85.675781 C 123.097656 87.871094 121.449219 89.683594 119.285156 90.847656 C 118.332031 91.320312 117.035156 91.964844 115.949219 91.921875 C 114.566406 91.878906 114.304688 90.15625 114.261719 88.992188 C 114.089844 84.339844 118.289062 80.890625 119.761719 76.710938 C 119.5 76.800781 119.285156 76.929688 119.023438 77.015625 C 127.078125 82.875 127.859375 95.027344 123.140625 103.214844 C 123.441406 103.214844 123.746094 103.214844 124.003906 103.214844 C 118.074219 94.59375 108.027344 90.371094 98.671875 86.449219 C 98.414062 86.320312 98.023438 86.449219 98.023438 86.839844 C 98.671875 99.464844 107.984375 110.96875 120.324219 114.15625 C 120.539062 114.199219 120.800781 114.070312 120.84375 113.855469 C 122.878906 106.617188 125.390625 99.378906 130.457031 93.648438 C 134.269531 89.425781 139.507812 85.246094 139.636719 79.082031 C 139.335938 79.125 138.988281 79.167969 138.683594 79.210938 C 140.546875 85.417969 141.457031 91.921875 141.238281 98.429688 C 141.066406 103.515625 140.894531 110.496094 136.953125 114.289062 C 133.273438 117.777344 127.644531 117.863281 123.050781 116.484375 C 117.554688 114.804688 112.441406 111.53125 107.417969 108.773438 C 104.90625 107.394531 102.398438 106.015625 99.839844 104.679688 C 97.761719 103.601562 95.597656 102.695312 93.214844 102.695312 C 93 102.695312 92.78125 102.867188 92.738281 103.039062 C 90.921875 109.117188 96.898438 113.941406 101.832031 116.097656 C 107.894531 118.769531 113.871094 118.421875 120.195312 116.828125 C 119.976562 116.65625 119.761719 116.484375 119.5 116.3125 C 119.285156 124.328125 119.632812 132.296875 120.195312 140.3125 C 121.839844 163.238281 123.746094 186.203125 123.746094 209.171875 C 123.746094 222.789062 122.835938 236.402344 119.199219 249.589844 C 119.5 249.589844 119.847656 249.589844 120.152344 249.589844 C 119.242188 243.082031 117.292969 236.792969 114.867188 230.671875 C 110.40625 219.46875 104.476562 208.957031 99.320312 198.097656 C 94.210938 187.28125 89.707031 175.863281 89.320312 163.796875 C 89.015625 163.882812 88.710938 163.96875 88.410156 164.054688 C 90.183594 167.933594 92.523438 171.511719 95.207031 174.785156 C 99.539062 180.128906 104.777344 184.652344 109.152344 189.996094 C 113.871094 195.855469 116.644531 202.621094 116.730469 210.207031 Z M 116.730469 210.207031 " fill-opacity="1" fill-rule="nonzero"/></g><g fill="rgb(15.289307%, 14.898682%, 14.898682%)" fill-opacity="1"><g transform="translate(136.765248, 139.860812)"><g><path d="M 14.273438 0.0273438 L 7.398438 -8.628906 C 9.566406 -8.921875 12.839844 -9.972656 12.839844 -13.746094 C 12.839844 -17.785156 8.453125 -18.339844 6.960938 -18.339844 C 5.527344 -18.339844 1.402344 -18.339844 1.402344 -18.339844 L 1.402344 0.0273438 L 3.480469 0.0273438 L 3.480469 -8.511719 L 4.828125 -8.511719 L 11.613281 0.0273438 Z M 3.480469 -17.871094 L 5.851562 -17.871094 C 8.832031 -17.871094 10.617188 -16.644531 10.617188 -13.425781 C 10.617188 -10.148438 8.511719 -8.980469 5.089844 -8.980469 L 3.480469 -8.980469 Z M 3.480469 -17.871094 "/></g></g></g><g fill="rgb(15.289307%, 14.898682%, 14.898682%)" fill-opacity="1"><g transform="translate(152.03376, 139.860812)"><g><path d="M 11.230469 -18.691406 C 5.96875 -18.691406 1.171875 -15.882812 1.171875 -9.097656 C 1.171875 -1.285156 7.546875 0.554688 11.230469 0.554688 C 14.886719 0.554688 21.292969 -1.285156 21.292969 -9.097656 C 21.292969 -15.882812 16.46875 -18.691406 11.230469 -18.691406 Z M 11.230469 0.0585938 C 7.925781 0.0585938 3.304688 -1.402344 3.304688 -9.097656 C 3.304688 -16.671875 8.394531 -18.222656 11.230469 -18.222656 C 14.070312 -18.222656 19.160156 -16.671875 19.160156 -9.097656 C 19.160156 -1.402344 14.507812 0.0585938 11.230469 0.0585938 Z M 11.230469 0.0585938 "/></g></g></g><g fill="rgb(15.289307%, 14.898682%, 14.898682%)" fill-opacity="1"><g transform="translate(174.673274, 139.860812)"><g><path d="M 1.023438 -1.34375 L 1.023438 -0.671875 C 1.023438 -0.671875 2.808594 0.761719 5.96875 0.761719 C 9.125 0.761719 12.140625 -1.433594 12.140625 -4.679688 C 12.140625 -11.230469 2.75 -9.300781 2.75 -14.625 C 2.75 -16.703125 4.183594 -18.398438 6.699219 -18.398438 C 9.183594 -18.398438 10.792969 -17.199219 10.792969 -17.199219 L 10.765625 -17.8125 C 10.765625 -17.8125 9.007812 -18.894531 6.667969 -18.894531 C 4.359375 -18.894531 1.113281 -17.492188 1.113281 -13.835938 C 1.113281 -7.285156 10.472656 -9.742188 10.472656 -3.949219 C 10.472656 -1.113281 8.308594 0.292969 5.96875 0.292969 C 3.453125 0.292969 2.046875 -0.554688 1.023438 -1.34375 Z M 1.023438 -1.34375 "/></g></g></g><g fill="rgb(15.289307%, 14.898682%, 14.898682%)" fill-opacity="1"><g transform="translate(187.98203, 139.860812)"><g><path d="M 10.707031 -17.871094 L 10.707031 -18.339844 L 1.402344 -18.339844 L 1.402344 0.0273438 L 10.707031 0.0273438 L 10.707031 -0.4375 L 3.480469 -0.4375 L 3.480469 -9.332031 L 9.914062 -9.332031 L 9.914062 -9.796875 L 3.480469 -9.796875 L 3.480469 -17.871094 Z M 10.707031 -17.871094 "/></g></g></g><g fill="rgb(15.289307%, 14.898682%, 14.898682%)" fill-opacity="1"><g transform="translate(199.945294, 139.860812)"><g><path d="M 24.65625 -18.339844 L 20.035156 -3.21875 L 13.980469 -18.136719 L 13.863281 -18.136719 L 12.8125 -15.503906 L 7.78125 -3.160156 L 3.128906 -18.339844 L 0.964844 -18.308594 L 6.699219 0.410156 L 6.875 0.410156 L 13.046875 -14.859375 L 19.246094 0.410156 L 19.421875 0.410156 L 25.183594 -18.339844 Z M 24.65625 -18.339844 "/></g></g></g><g fill="rgb(15.289307%, 14.898682%, 14.898682%)" fill-opacity="1"><g transform="translate(226.182566, 139.860812)"><g><path d="M 15.296875 0.0273438 L 17.550781 0.0273438 L 9.507812 -18.691406 L 9.359375 -18.691406 L 1.023438 0.0273438 L 1.667969 0.0273438 L 4.972656 -7.339844 L 12.109375 -7.339844 Z M 5.175781 -7.839844 L 8.597656 -15.53125 L 11.90625 -7.839844 Z M 5.175781 -7.839844 "/></g></g></g><g fill="rgb(15.289307%, 14.898682%, 14.898682%)" fill-opacity="1"><g transform="translate(244.785577, 139.860812)"><g><path d="M 14.363281 -18.339844 L 0.964844 -18.339844 L 0.964844 -17.871094 L 6.609375 -17.871094 L 6.609375 0.0273438 L 8.714844 0.0273438 L 8.714844 -17.871094 L 14.363281 -17.871094 Z M 14.363281 -18.339844 "/></g></g></g><g fill="rgb(15.289307%, 14.898682%, 14.898682%)" fill-opacity="1"><g transform="translate(260.141842, 139.860812)"><g><path d="M 14.363281 -18.339844 L 0.964844 -18.339844 L 0.964844 -17.871094 L 6.609375 -17.871094 L 6.609375 0.0273438 L 8.714844 0.0273438 L 8.714844 -17.871094 L 14.363281 -17.871094 Z M 14.363281 -18.339844 "/></g></g></g><g fill="rgb(15.289307%, 14.898682%, 14.898682%)" fill-opacity="1"><g transform="translate(275.498106, 139.860812)"><g><path d="M 10.707031 -17.871094 L 10.707031 -18.339844 L 1.402344 -18.339844 L 1.402344 0.0273438 L 10.707031 0.0273438 L 10.707031 -0.4375 L 3.480469 -0.4375 L 3.480469 -9.332031 L 9.914062 -9.332031 L 9.914062 -9.796875 L 3.480469 -9.796875 L 3.480469 -17.871094 Z M 10.707031 -17.871094 "/></g></g></g><g fill="rgb(15.289307%, 14.898682%, 14.898682%)" fill-opacity="1"><g transform="translate(287.46137, 139.860812)"><g><path d="M 14.273438 0.0273438 L 7.398438 -8.628906 C 9.566406 -8.921875 12.839844 -9.972656 12.839844 -13.746094 C 12.839844 -17.785156 8.453125 -18.339844 6.960938 -18.339844 C 5.527344 -18.339844 1.402344 -18.339844 1.402344 -18.339844 L 1.402344 0.0273438 L 3.480469 0.0273438 L 3.480469 -8.511719 L 4.828125 -8.511719 L 11.613281 0.0273438 Z M 3.480469 -17.871094 L 5.851562 -17.871094 C 8.832031 -17.871094 10.617188 -16.644531 10.617188 -13.425781 C 10.617188 -10.148438 8.511719 -8.980469 5.089844 -8.980469 L 3.480469 -8.980469 Z M 3.480469 -17.871094 "/></g></g></g><g fill="rgb(15.289307%, 14.898682%, 14.898682%)" fill-opacity="1"><g transform="translate(136.765248, 180.360809)"><g><path d="M 16.585938 -1.636719 C 16.585938 -1.636719 14.625 0.0585938 11.230469 0.0585938 C 7.957031 0.0585938 3.304688 -1.402344 3.304688 -9.097656 C 3.304688 -16.671875 8.394531 -18.222656 11.230469 -18.222656 C 14.683594 -18.222656 16.585938 -16.847656 16.585938 -16.847656 L 16.585938 -17.492188 C 16.585938 -17.492188 14.566406 -18.691406 11.230469 -18.691406 C 5.96875 -18.691406 1.171875 -15.882812 1.171875 -9.097656 C 1.171875 -1.285156 7.285156 0.554688 10.96875 0.554688 C 14.625 0.554688 16.585938 -0.996094 16.585938 -0.996094 Z M 16.585938 -1.636719 "/></g></g></g><g fill="rgb(15.289307%, 14.898682%, 14.898682%)" fill-opacity="1"><g transform="translate(154.607765, 180.360809)"><g><path d="M 12.082031 -18.339844 L 12.082031 -9.796875 L 3.480469 -9.796875 L 3.480469 -18.339844 L 1.402344 -18.339844 L 1.402344 0.0273438 L 3.480469 0.0273438 L 3.480469 -9.332031 L 12.082031 -9.332031 L 12.082031 0.0273438 L 14.1875 0.0273438 L 14.1875 -18.339844 Z M 12.082031 -18.339844 "/></g></g></g><g fill="rgb(15.289307%, 14.898682%, 14.898682%)" fill-opacity="1"><g transform="translate(170.315032, 180.360809)"><g><path d="M 1.695312 0.0273438 L 3.773438 0.0273438 L 3.773438 -18.339844 L 1.695312 -18.339844 Z M 1.695312 0.0273438 "/></g></g></g><g fill="rgb(15.289307%, 14.898682%, 14.898682%)" fill-opacity="1"><g transform="translate(175.931037, 180.360809)"><g><path d="M 16.585938 -1.636719 C 16.585938 -1.636719 14.625 0.0585938 11.230469 0.0585938 C 7.957031 0.0585938 3.304688 -1.402344 3.304688 -9.097656 C 3.304688 -16.671875 8.394531 -18.222656 11.230469 -18.222656 C 14.683594 -18.222656 16.585938 -16.847656 16.585938 -16.847656 L 16.585938 -17.492188 C 16.585938 -17.492188 14.566406 -18.691406 11.230469 -18.691406 C 5.96875 -18.691406 1.171875 -15.882812 1.171875 -9.097656 C 1.171875 -1.285156 7.285156 0.554688 10.96875 0.554688 C 14.625 0.554688 16.585938 -0.996094 16.585938 -0.996094 Z M 16.585938 -1.636719 "/></g></g></g><g fill="rgb(15.289307%, 14.898682%, 14.898682%)" fill-opacity="1"><g transform="translate(193.773554, 180.360809)"><g><path d="M 15.296875 0.0273438 L 17.550781 0.0273438 L 9.507812 -18.691406 L 9.359375 -18.691406 L 1.023438 0.0273438 L 1.667969 0.0273438 L 4.972656 -7.339844 L 12.109375 -7.339844 Z M 5.175781 -7.839844 L 8.597656 -15.53125 L 11.90625 -7.839844 Z M 5.175781 -7.839844 "/></g></g></g><g fill="rgb(15.289307%, 14.898682%, 14.898682%)" fill-opacity="1"><g transform="translate(212.376564, 180.360809)"><g><path d="M 12.371094 -9.332031 L 12.371094 -8.832031 L 15.003906 -8.832031 L 15.003906 -0.613281 C 14.011719 -0.234375 12.695312 0.0585938 11.230469 0.0585938 C 6.667969 0.0585938 3.304688 -2.222656 3.304688 -9.097656 C 3.304688 -16.671875 8.132812 -18.222656 11.230469 -18.222656 C 14.683594 -18.222656 16.585938 -17.402344 16.585938 -17.402344 L 16.585938 -17.988281 C 16.585938 -17.988281 14.566406 -18.691406 11.230469 -18.691406 C 5.96875 -18.691406 1.171875 -15.882812 1.171875 -9.097656 C 1.171875 -1.285156 7.285156 0.554688 10.96875 0.554688 C 14.625 0.554688 17.082031 -0.996094 17.082031 -0.996094 L 17.082031 -9.332031 Z M 12.371094 -9.332031 "/></g></g></g><g fill="rgb(15.289307%, 14.898682%, 14.898682%)" fill-opacity="1"><g transform="translate(230.921084, 180.360809)"><g><path d="M 11.230469 -18.691406 C 5.96875 -18.691406 1.171875 -15.882812 1.171875 -9.097656 C 1.171875 -1.285156 7.546875 0.554688 11.230469 0.554688 C 14.886719 0.554688 21.292969 -1.285156 21.292969 -9.097656 C 21.292969 -15.882812 16.46875 -18.691406 11.230469 -18.691406 Z M 11.230469 0.0585938 C 7.925781 0.0585938 3.304688 -1.402344 3.304688 -9.097656 C 3.304688 -16.671875 8.394531 -18.222656 11.230469 -18.222656 C 14.070312 -18.222656 19.160156 -16.671875 19.160156 -9.097656 C 19.160156 -1.402344 14.507812 0.0585938 11.230469 0.0585938 Z M 11.230469 0.0585938 "/></g></g></g><g fill="rgb(15.289307%, 14.898682%, 14.898682%)" fill-opacity="1"><g transform="translate(253.560598, 180.360809)"><g><path d="M 3.480469 -0.4375 L 3.480469 -18.339844 L 1.402344 -18.339844 L 1.402344 0.0273438 L 10.792969 0.0273438 L 10.792969 -0.4375 Z M 3.480469 -0.4375 "/></g></g></g><g fill="rgb(15.289307%, 14.898682%, 14.898682%)" fill-opacity="1"><g transform="translate(265.49461, 180.360809)"><g><path d="M 15.296875 0.0273438 L 17.550781 0.0273438 L 9.507812 -18.691406 L 9.359375 -18.691406 L 1.023438 0.0273438 L 1.667969 0.0273438 L 4.972656 -7.339844 L 12.109375 -7.339844 Z M 5.175781 -7.839844 L 8.597656 -15.53125 L 11.90625 -7.839844 Z M 5.175781 -7.839844 "/></g></g></g><g fill="rgb(15.289307%, 14.898682%, 14.898682%)" fill-opacity="1"><g transform="translate(284.097621, 180.360809)"><g><path d="M 16.320312 -18.339844 L 15.851562 -18.339844 L 15.851562 -2.777344 L 1.460938 -18.691406 L 1.402344 -18.691406 L 1.402344 0.0273438 L 1.871094 0.0273438 L 1.871094 -15.355469 L 16.234375 0.554688 L 16.320312 0.554688 Z M 16.320312 -18.339844 "/></g></g></g><g fill="rgb(15.289307%, 14.898682%, 14.898682%)" fill-opacity="1"><g transform="translate(301.969389, 180.360809)"><g><path d="M 8.980469 -18.339844 L 1.402344 -18.339844 L 1.402344 0.0273438 L 7.605469 0.0273438 C 8.484375 0.0273438 18.28125 0.46875 18.28125 -9.449219 C 18.28125 -17.460938 12.371094 -18.339844 8.980469 -18.339844 Z M 7.546875 -0.4375 L 3.480469 -0.4375 L 3.480469 -17.84375 L 7.867188 -17.84375 C 11.203125 -17.84375 16.117188 -16.613281 16.117188 -9.449219 C 16.117188 -2.3125 11.554688 -0.4375 7.546875 -0.4375 Z M 7.546875 -0.4375 "/></g></g></g><g fill="rgb(15.289307%, 14.898682%, 14.898682%)" fill-opacity="1"><g transform="translate(136.765248, 220.860806)"><g><path d="M 16.585938 -1.636719 C 16.585938 -1.636719 14.625 0.0585938 11.230469 0.0585938 C 7.957031 0.0585938 3.304688 -1.402344 3.304688 -9.097656 C 3.304688 -16.671875 8.394531 -18.222656 11.230469 -18.222656 C 14.683594 -18.222656 16.585938 -16.847656 16.585938 -16.847656 L 16.585938 -17.492188 C 16.585938 -17.492188 14.566406 -18.691406 11.230469 -18.691406 C 5.96875 -18.691406 1.171875 -15.882812 1.171875 -9.097656 C 1.171875 -1.285156 7.285156 0.554688 10.96875 0.554688 C 14.625 0.554688 16.585938 -0.996094 16.585938 -0.996094 Z M 16.585938 -1.636719 "/></g></g></g><g fill="rgb(15.289307%, 14.898682%, 14.898682%)" fill-opacity="1"><g transform="translate(154.607765, 220.860806)"><g><path d="M 11.230469 -18.691406 C 5.96875 -18.691406 1.171875 -15.882812 1.171875 -9.097656 C 1.171875 -1.285156 7.546875 0.554688 11.230469 0.554688 C 14.886719 0.554688 21.292969 -1.285156 21.292969 -9.097656 C 21.292969 -15.882812 16.46875 -18.691406 11.230469 -18.691406 Z M 11.230469 0.0585938 C 7.925781 0.0585938 3.304688 -1.402344 3.304688 -9.097656 C 3.304688 -16.671875 8.394531 -18.222656 11.230469 -18.222656 C 14.070312 -18.222656 19.160156 -16.671875 19.160156 -9.097656 C 19.160156 -1.402344 14.507812 0.0585938 11.230469 0.0585938 Z M 11.230469 0.0585938 "/></g></g></g><g fill="rgb(15.289307%, 14.898682%, 14.898682%)" fill-opacity="1"><g transform="translate(177.247279, 220.860806)"><g><path d="M 14.769531 -18.339844 L 14.769531 -7.019531 C 14.769531 -1.433594 11.933594 -0.203125 8.597656 -0.203125 C 3.65625 -0.203125 3.394531 -4.679688 3.394531 -6.757812 L 3.394531 -18.339844 L 1.316406 -18.339844 L 1.316406 -6.757812 C 1.316406 -0.789062 4.710938 0.554688 8.160156 0.554688 C 12.839844 0.554688 15.269531 -1.929688 15.269531 -6.757812 L 15.269531 -18.339844 Z M 14.769531 -18.339844 "/></g></g></g><g fill="rgb(15.289307%, 14.898682%, 14.898682%)" fill-opacity="1"><g transform="translate(193.949037, 220.860806)"><g><path d="M 16.320312 -18.339844 L 15.851562 -18.339844 L 15.851562 -2.777344 L 1.460938 -18.691406 L 1.402344 -18.691406 L 1.402344 0.0273438 L 1.871094 0.0273438 L 1.871094 -15.355469 L 16.234375 0.554688 L 16.320312 0.554688 Z M 16.320312 -18.339844 "/></g></g></g><g fill="rgb(15.289307%, 14.898682%, 14.898682%)" fill-opacity="1"><g transform="translate(211.820804, 220.860806)"><g><path d="M 1.023438 -1.34375 L 1.023438 -0.671875 C 1.023438 -0.671875 2.808594 0.761719 5.96875 0.761719 C 9.125 0.761719 12.140625 -1.433594 12.140625 -4.679688 C 12.140625 -11.230469 2.75 -9.300781 2.75 -14.625 C 2.75 -16.703125 4.183594 -18.398438 6.699219 -18.398438 C 9.183594 -18.398438 10.792969 -17.199219 10.792969 -17.199219 L 10.765625 -17.8125 C 10.765625 -17.8125 9.007812 -18.894531 6.667969 -18.894531 C 4.359375 -18.894531 1.113281 -17.492188 1.113281 -13.835938 C 1.113281 -7.285156 10.472656 -9.742188 10.472656 -3.949219 C 10.472656 -1.113281 8.308594 0.292969 5.96875 0.292969 C 3.453125 0.292969 2.046875 -0.554688 1.023438 -1.34375 Z M 1.023438 -1.34375 "/></g></g></g><g fill="rgb(15.289307%, 14.898682%, 14.898682%)" fill-opacity="1"><g transform="translate(225.129561, 220.860806)"><g><path d="M 10.707031 -17.871094 L 10.707031 -18.339844 L 1.402344 -18.339844 L 1.402344 0.0273438 L 10.707031 0.0273438 L 10.707031 -0.4375 L 3.480469 -0.4375 L 3.480469 -9.332031 L 9.914062 -9.332031 L 9.914062 -9.796875 L 3.480469 -9.796875 L 3.480469 -17.871094 Z M 10.707031 -17.871094 "/></g></g></g><g fill="rgb(15.289307%, 14.898682%, 14.898682%)" fill-opacity="1"><g transform="translate(237.092824, 220.860806)"><g><path d="M 3.480469 -0.4375 L 3.480469 -18.339844 L 1.402344 -18.339844 L 1.402344 0.0273438 L 10.792969 0.0273438 L 10.792969 -0.4375 Z M 3.480469 -0.4375 "/></g></g></g><g fill="rgb(15.289307%, 14.898682%, 14.898682%)" fill-opacity="1"><g transform="translate(249.026837, 220.860806)"><g><path d="M 1.695312 0.0273438 L 3.773438 0.0273438 L 3.773438 -18.339844 L 1.695312 -18.339844 Z M 1.695312 0.0273438 "/></g></g></g><g fill="rgb(15.289307%, 14.898682%, 14.898682%)" fill-opacity="1"><g transform="translate(254.642842, 220.860806)"><g><path d="M 16.320312 -18.339844 L 15.851562 -18.339844 L 15.851562 -2.777344 L 1.460938 -18.691406 L 1.402344 -18.691406 L 1.402344 0.0273438 L 1.871094 0.0273438 L 1.871094 -15.355469 L 16.234375 0.554688 L 16.320312 0.554688 Z M 16.320312 -18.339844 "/></g></g></g><g fill="rgb(15.289307%, 14.898682%, 14.898682%)" fill-opacity="1"><g transform="translate(272.514609, 220.860806)"><g><path d="M 12.371094 -9.332031 L 12.371094 -8.832031 L 15.003906 -8.832031 L 15.003906 -0.613281 C 14.011719 -0.234375 12.695312 0.0585938 11.230469 0.0585938 C 6.667969 0.0585938 3.304688 -2.222656 3.304688 -9.097656 C 3.304688 -16.671875 8.132812 -18.222656 11.230469 -18.222656 C 14.683594 -18.222656 16.585938 -17.402344 16.585938 -17.402344 L 16.585938 -17.988281 C 16.585938 -17.988281 14.566406 -18.691406 11.230469 -18.691406 C 5.96875 -18.691406 1.171875 -15.882812 1.171875 -9.097656 C 1.171875 -1.285156 7.285156 0.554688 10.96875 0.554688 C 14.625 0.554688 17.082031 -0.996094 17.082031 -0.996094 L 17.082031 -9.332031 Z M 12.371094 -9.332031 "/></g></g></g><g fill="rgb(15.289307%, 14.898682%, 14.898682%)" fill-opacity="1"><g transform="translate(291.054301, 220.860806)"><g/></g></g></svg>